<svg id="Componente_1_1" data-name="Componente 1 – 1" xmlns="http://www.w3.org/2000/svg" width="618.201" height="411.343" viewBox="0 0 618.201 411.343">
  <defs>
    <style>
      .cls-1 {
        fill: #e6e7e8;
      }

      .cls-2 {
        fill: #3f3d56;
      }

      .cls-3 {
        fill: #c00020;
      }

      .cls-4 {
        fill: #ffb6b6;
      }

      .cls-5 {
        fill: #2f2e41;
      }

      .cls-6 {
        fill: #a0616a;
      }
    </style>
  </defs>
  <path id="Caminho_3617" data-name="Caminho 3617" class="cls-1" d="M222.19,34.225h-75a4.667,4.667,0,0,1,0-9.333h75a4.667,4.667,0,0,1,0,9.333Z" transform="translate(16.821 2.938)"/>
  <path id="Caminho_3618" data-name="Caminho 3618" class="cls-1" d="M280.722,48.352H147.188a4.667,4.667,0,0,1,0-9.333H280.722a4.667,4.667,0,1,1,0,9.333Z" transform="translate(16.821 4.605)"/>
  <path id="Caminho_3619" data-name="Caminho 3619" class="cls-1" d="M280.722,62.352H147.188a4.667,4.667,0,0,1,0-9.333H280.722a4.667,4.667,0,1,1,0,9.333Z" transform="translate(16.821 6.257)"/>
  <path id="Caminho_3620" data-name="Caminho 3620" class="cls-2" d="M285.73,141.218v-2.236c-25.81,0-48.348-21.083-54.341-50.452l9.725,2.5c-4.7-4.456-9.455-11.916-12.4-18.013-1.741,6.545-4.993,14.771-8.767,20.038l9.2-4.359c6.118,30.554,29.626,52.52,56.585,52.52Z" transform="translate(25.958 8.618)"/>
  <path id="Caminho_3621" data-name="Caminho 3621" class="cls-3" d="M277.134,57.952a4.477,4.477,0,0,1-4.472,4.472H214.525a4.472,4.472,0,0,1,0-8.944h58.137A4.477,4.477,0,0,1,277.134,57.952Z" transform="translate(24.791 6.312)"/>
  <g id="Grupo_16442" data-name="Grupo 16442" transform="translate(0 13.919)">
    <g id="Grupo_16439" data-name="Grupo 16439" transform="translate(0 103.42)">
      <path id="Caminho_3622" data-name="Caminho 3622" class="cls-4" d="M38.548,284.252a18.262,18.262,0,0,0-4.2-7.585l-6.556-29.885-14.29,3.5,8.189,29.938a18.121,18.121,0,0,0,.454,8.639c2.022,7.04,7.334,11.716,11.865,10.444s6.565-8.011,4.543-15.051h0Z" transform="translate(1.593 -88.212)"/>
      <path id="Caminho_3623" data-name="Caminho 3623" class="cls-3" d="M38.164,104.957s-15.434-.533-24.378,9.529C3.539,127-3.466,176.053,1.793,179.355L16.039,280.52l20.315-2.792L31.141,156.346l7.024-51.389h0Z" transform="translate(0 -104.952)"/>
    </g>
    <path id="Caminho_3624" data-name="Caminho 3624" class="cls-5" d="M140.559,257.48l-3.7,123.471H83.755l-2.147-47.594-9.436,47.594H15.253l7.1-81.817,7.334-17.206,4.964-11.661Z" transform="translate(1.8 16.47)"/>
    <path id="Caminho_3625" data-name="Caminho 3625" class="cls-3" d="M97.661,87.153,60.766,84.917l-12.3,15.652c-10.622,2.274-20.215,5.21-26.833,10.062,1.583,46.874-1.895,107.824,12.3,119.628l-12.6,88.953s5.082-4.354,13.572-2.817c2.933.531,6.474,7.138,10.078,7.539,27.693,3.076,72.6-.087,94.86-46.089L131.2,211.254l2.236-97.268c-6.99-5.526-15.681-9.117-25.715-11.18L97.661,87.153h0Z" transform="translate(2.517 -3.896)"/>
    <g id="Grupo_16440" data-name="Grupo 16440" transform="translate(111.041 41.031)">
      <path id="Caminho_3626" data-name="Caminho 3626" class="cls-4" d="M155.3,64.163a22.282,22.282,0,0,1-1.279,10.444l6.146,36.684-17.541,2.414-4.346-37.473a22.281,22.281,0,0,1-3.386-9.962c-.915-8.855,2.912-16.505,8.547-17.087s10.944,6.125,11.859,14.98h0Z" transform="translate(-95.136 -49.149)"/>
      <path id="Caminho_3627" data-name="Caminho 3627" class="cls-3" d="M101.166,117.486c-1.837,2.71-1.325,5.756-1.763,9.416-1.862,15.536,27.911,61.446,48.511,66.733,2.7.694,4.243,3.61,6.972,4.2h0A12.552,12.552,0,0,0,170.058,184.9l-5.6-105.886-23.509,8.019,1.5,54.974c-.15-11.389-10.607-22.985-18.529-27.808,0,0-16.045-6.621-22.763,3.292Z" transform="translate(-99.319 -45.624)"/>
    </g>
    <g id="Grupo_16441" data-name="Grupo 16441" transform="translate(46.116)">
      <circle id="Elipse_212" data-name="Elipse 212" class="cls-4" cx="32.498" cy="32.498" r="32.498" transform="translate(6.945 13.131)"/>
      <path id="Caminho_3628" data-name="Caminho 3628" class="cls-5" d="M110.962,34.215a60.8,60.8,0,0,1,4.472-4.472c4.472-2.236-.123,19.621-3.354,19.006-7.949-1.509-11.381-4.506-14.467,2.974-.861,2.08-1.4,4.427-3.075,5.914-2.3,2.024-6.127,1.856-8.005,4.271-1.509,1.945-1.073,4.808.045,7s2.817,4.07,3.835,6.317c1.14,2.527-3.723,10.565-5.579,15.082v.011l-.011.026c-.493,1.185-1.665-2.228-2.9-2.569-1.481-.408-3.662,3.088-6.02,2.453-.011,0-.022-.011-.034-.011-2.247-.626-4.752-1.3-7.234-1.968h-.011c-6.988-1.9-8.754.827-9.09.749L55.2,84.459c-1.489-1.084-1.32-4.583-2.37-5.523-.859-.769-3,1.007-3.63.269-3.093-3.622-3.8-7.246-5.628-14.4-1.666-6.54-5.12-26.117,1.979-27,6.7-.839,1.8-10.163,8.542-9.816a5.323,5.323,0,0,1,1.565-4.774A12.648,12.648,0,0,1,60.092,20.5c7.994-3.265,6.663-6.071,15.093-4.17.839-1.174,11.591-4.234,13.111-3.843.112.022-2.345,4.793,3.659,3.843-.224,1.375,3.049-1.607,3.354,3.354,6.4-3.843,9.85,5.355,10.062,6.708.28,1.688-2.27.827-.57,1.084,1.006.157,2.728,2.2,2.56,3.22.727-.984,1.453-1.957,2.191-2.94.134.011.257.034.391.056,3.4.648-.5,11.759-.358,8.3.257-6.362,4.763-2.639,1.375-1.889h0Z" transform="translate(-41.248 -12.449)"/>
    </g>
  </g>
  <path id="Caminho_3629" data-name="Caminho 3629" class="cls-5" d="M477.1,26.285q-1.8,14.8-3.936,29.564c-.578,4-1.189,8.044-2.8,11.748a46.39,46.39,0,0,1-4.163,7.131,36.939,36.939,0,0,1-6.1,7.6,12.446,12.446,0,0,1-8.888,3.395,35.538,35.538,0,0,0,15.322-25.955c.43-4.863-.16-9.752-.273-14.632s.3-9.931,2.547-14.263,6.7-7.8,11.581-7.676l-3.3,3.092h0Z" transform="translate(53.254 2.737)"/>
  <g id="Grupo_16443" data-name="Grupo 16443" transform="translate(422.197 135.906)">
    <path id="Caminho_3630" data-name="Caminho 3630" class="cls-6" d="M398.468,218.937h0c-7.011,5.686-15.627,6.679-19.245,2.218s-.868-12.687,6.142-18.373a22.593,22.593,0,0,1,9.576-4.705l30.008-23.721,10.832,14.319-30.732,21.864a22.593,22.593,0,0,1-6.58,8.4h0Z" transform="translate(-377.628 -115.328)"/>
    <path id="Caminho_3631" data-name="Caminho 3631" class="cls-3" d="M401.338,192.966l44.713-42.427,4.472-3.354s25.667-25.006,32.313-25.579a12.725,12.725,0,0,1,9.59,22.149L451.492,180.5l-17.414,15.632-21.657,19.447-2.2-4.485-7.445-15.2-1.436-2.936h0Z" transform="translate(-374.83 -121.559)"/>
  </g>
  <path id="Caminho_3632" data-name="Caminho 3632" class="cls-6" d="M491.579,159.746,446.81,173.458c7.5,2.111,10.634,47.784,3.658,49.2,0,0,74.2,5.277,70.149,0-4.935-6.433,1.684-49.184,4.84-49.2l-33.877-13.712Z" transform="translate(52.734 18.854)"/>
  <path id="Caminho_3633" data-name="Caminho 3633" class="cls-5" d="M554.259,386.457l-3.913-47.225a357.592,357.592,0,0,0-2.851-45.761c-7.032-54.615-24.664-82.611-24.664-82.611H456.868c-.089.1-.179.179-.268.279l-.011.011c-15.563,16.357-23.657,57.489-27.257,82.32-1.711,11.818-2.4,19.946-2.4,19.946l-6.451,57.332,4.662,15.708H463.52l-.6-3.365,24.7-89.621.3-1.1.268,1.1,22.9,92.986h43.178Z" transform="translate(49.626 24.886)"/>
  <path id="Caminho_3634" data-name="Caminho 3634" class="cls-3" d="M455.752,141.529l13.939-28.137,11.745-20.442,9.5-9.679h25.993l2.42,9.679,14.519,8.066L539,141.345l-18.3,87.5c-21.778-17.745-66.665-22.66-66.665-22.66l-7.273-21.165-4.807-25.5-.581-3.049,14.375-14.948h0Z" transform="translate(52.092 9.828)"/>
  <g id="Grupo_16444" data-name="Grupo 16444" transform="translate(490.128 113.511)">
    <path id="Caminho_3635" data-name="Caminho 3635" class="cls-6" d="M454.434,183.1h0c-9.023-.256-16.205-5.118-16.042-10.86s7.609-10.189,16.632-9.933a22.592,22.592,0,0,1,10.329,2.672l38.219,1.564-1.116,17.92L464.9,181.02a22.593,22.593,0,0,1-10.464,2.082h0Z" transform="translate(-438.389 -94.356)"/>
    <path id="Caminho_3636" data-name="Caminho 3636" class="cls-3" d="M500.821,129.11,536.873,164.9l-62.8,6.431L459.482,191.86l87.528,2.9a12.727,12.727,0,0,0,16.959-11h0c.219-2.822-17.762-74.429-28.648-81.077-12.759-7.792-34.5,26.427-34.5,26.427l7.121-11.855-7.121,11.855Z" transform="translate(-435.899 -101.528)"/>
  </g>
  <circle id="Elipse_213" data-name="Elipse 213" class="cls-6" cx="29.441" cy="29.441" r="29.441" transform="translate(520.743 86.466) rotate(-89.076)"/>
  <path id="Caminho_3637" data-name="Caminho 3637" class="cls-5" d="M560.206,147.69c-.738,2.8-6.484,4.237-7.826,7.826-4.271,2.437-1.957-17.475-3.678-18.783-1.33-1-1.688,1.409-1.99-.66-1.14-7.759-8.6-6.026-14.121-7.278a18.4,18.4,0,0,1-1.42-3.555,2.748,2.748,0,0,0-4.617-1.275c-.682-.6-1.174-2.739-1.655-4.875A29.458,29.458,0,0,0,523.8,115l-3.846-8.676,1.241,6.462c-2.516-.906-5.053.034-6.518-3.075-1.878-3.991-2.627-8.665-1.263-12.857,1.241-3.8,3.332-11.415,5.691-17.721a23.749,23.749,0,0,1-9.6,4.047,29.718,29.718,0,0,0,3.22-7.837,9.959,9.959,0,0,0-1.554-8.094c-1.453-1.822-3.6-1.364-5.411-2.829-1.409-1.14-2.627-4.058-3.477-5.657,3.622,12.041,6.362,24.831,1.755,36.325a31.063,31.063,0,0,1-17.944,17.374c4.282-3.063,8.463-6.328,11.672-10.487,3.432-4.461,5.668-10.1,4.986-15.686C501.678,77.512,485.4,49.751,483.4,44.3c1.1,5.333.671,9.492-2.214,11.784-.749-7.737-9.179-7.032-13.774-10.129,0,0-3.555-20.091,4.785-20.214,4.025-.056,8.24-9.514,11.9-11.2,5.836-2.694,9.414-.861,15.887-.66a21.633,21.633,0,0,1,16.614,8.083c2.068,2.672,2.829.548,5.937,2.214,2.952,1.576,4.942.112,8.285.212a21.529,21.529,0,0,1,16.949,9.291c3.757,5.545,6.071,5.031,4.584,13.606a2.559,2.559,0,0,0,0,.6,86.444,86.444,0,0,1-6.63,39.477c-1.655,3.824,6.439,7.77,6.428,12.544-.011,5.545-8.944,10.6-8.116,12.969,2.37,11.415,15.686,8.877,12.544,27.984-.257,1.554,4.126,4.964,3.634,6.831Z" transform="translate(55.076 1.544)"/>
  <path id="Caminho_3638" data-name="Caminho 3638" class="cls-5" d="M477.4,102.239q.369-.117.738-.268c-.313.224-.615.436-.928.66Z" transform="translate(56.321 12.035)"/>
  <path id="Caminho_3639" data-name="Caminho 3639" class="cls-3" d="M515.015,19.249c-3.2.476-6.456-4.838-4.638-12.206a39.554,39.554,0,0,1,6.307,20.373l-2.136.662.466-8.828Z" transform="translate(60.174 0.831)"/>
  <path id="Caminho_3640" data-name="Caminho 3640" class="cls-3" d="M530.884,11.809C528.7,19.553,517.6,24.735,515.639,22.04l-.224,4.618-1.372-1.765a32.982,32.982,0,0,1,16.841-13.085h0Z" transform="translate(60.669 1.394)"/>
  <g id="Grupo_16445" data-name="Grupo 16445" transform="translate(289.307 217.366)">
    <path id="Caminho_3641" data-name="Caminho 3641" class="cls-1" d="M311.121,199.087a4.672,4.672,0,0,1,4.667-4.667h75a4.667,4.667,0,0,1,0,9.333h-75A4.672,4.672,0,0,1,311.121,199.087Z" transform="translate(-252.588 -194.42)"/>
    <path id="Caminho_3642" data-name="Caminho 3642" class="cls-1" d="M311.121,227.087a4.672,4.672,0,0,1,4.667-4.667h75a4.667,4.667,0,1,1,0,9.333h-75A4.672,4.672,0,0,1,311.121,227.087Z" transform="translate(-252.588 -191.115)"/>
    <path id="Caminho_3643" data-name="Caminho 3643" class="cls-1" d="M263.434,217.88a4.667,4.667,0,0,1,0-9.333H396.968a4.667,4.667,0,0,1,0,9.333H263.434Z" transform="translate(-258.767 -192.753)"/>
  </g>
  <g id="Grupo_16446" data-name="Grupo 16446" transform="translate(263.787 145.311)">
    <path id="Caminho_3644" data-name="Caminho 3644" class="cls-2" d="M255.033,182.491l-9.2-4.359c3.774,5.267,7.026,13.492,8.767,20.038,2.948-6.1,7.7-13.557,12.4-18.013l-9.725,2.5c5.992-29.368,28.531-50.452,54.341-50.452v-2.236c-26.959,0-50.466,21.966-56.585,52.52Z" transform="translate(-234.774 -129.971)"/>
    <path id="Caminho_3645" data-name="Caminho 3645" class="cls-3" d="M298.55,217.915H240.413a4.472,4.472,0,0,1,0-8.944H298.55a4.472,4.472,0,0,1,0,8.944Z" transform="translate(-235.941 -120.647)"/>
  </g>
  <circle id="Elipse_214" data-name="Elipse 214" class="cls-2" cx="17.505" cy="17.505" r="17.505" transform="translate(306.013 162.788) rotate(-80.783)"/>
  <circle id="Elipse_215" data-name="Elipse 215" class="cls-1" cx="10.797" cy="10.797" r="10.797" transform="translate(220.268)"/>
  <circle id="Elipse_216" data-name="Elipse 216" class="cls-1" cx="10.797" cy="10.797" r="10.797" transform="translate(346.604 186.709)"/>
</svg>
